<?xml version="1.0" encoding="iso-8859-1"?>
<!-- Generator: Adobe Illustrator 16.0.0, SVG Export Plug-In . SVG Version: 6.00 Build 0)  -->
<!DOCTYPE svg PUBLIC "-//W3C//DTD SVG 1.1//EN" "http://www.w3.org/Graphics/SVG/1.1/DTD/svg11.dtd">
<svg xmlns="http://www.w3.org/2000/svg" xmlns:xlink="http://www.w3.org/1999/xlink" version="1.1" id="Capa_1" x="0px" y="0px" width="512px" height="512px" viewBox="0 0 723.266 723.267" style="enable-background:new 0 0 723.266 723.267;" xml:space="preserve">
<g>
	<g>
		<path d="M361.104,404.382c12.771,0,24.138-5.546,32.168-14.221h63.635c16.383,0,29.66-13.3,29.66-29.683    c0-16.372-13.288-29.683-29.66-29.683H393.25c-6.788-7.363-16.038-12.288-26.496-13.645l-56.697-79.811    c-9.503-13.346-28.038-16.487-41.384-6.983c-13.346,9.48-16.487,28.015-7.006,41.383l56.559,79.615    c-0.621,2.957-0.978,5.982-0.978,9.124C317.258,384.742,336.897,404.382,361.104,404.382z" fill="#444444"/>
		<path d="M440.19,65.65l7.007,6.523c6.868,6.408,10.814,15.486,10.814,24.874c0,9.388-3.935,18.443-10.814,24.851l-22.804,21.25    c88.555,26.013,154.928,104.132,163.096,198.945h-26.657c-10.906,0-19.777,8.859-19.777,19.777c0,10.941,8.883,19.8,19.777,19.8    h26.75c-8.859,102.44-85.713,185.496-185.082,204.215v-42.834c0-5.648-3.359-10.769-8.525-13.035    c-5.212-2.243-11.24-1.196-15.383,2.646l-89.049,82.997c-2.865,2.692-4.51,6.455-4.51,10.412c0,3.936,1.645,7.697,4.51,10.39    l89.049,82.997c4.143,3.843,10.171,4.89,15.383,2.623c5.166-2.266,8.525-7.386,8.525-13.012v-42.938    c0.333-0.022,0.644,0.104,0.978,0.069c149.301-21.031,264.156-149.231,264.156-304.32    C667.633,219.841,571.083,100.867,440.19,65.65z" fill="#444444"/>
		<path d="M265.255,626.223c0-9.389,3.935-18.443,10.815-24.852l22.803-21.25c-88.554-26.013-154.927-104.132-163.096-198.945    h26.657c10.907,0,19.777-8.858,19.777-19.777c0-10.941-8.871-19.777-19.777-19.777h-26.749    c8.859-102.464,85.712-185.519,185.082-204.238v42.833c0,5.649,3.36,10.769,8.525,13.035c5.212,2.244,11.241,1.196,15.371-2.646    l89.049-82.998c2.876-2.692,4.51-6.455,4.51-10.412c0-3.935-1.645-7.697-4.51-10.389L344.664,3.81    c-4.142-3.854-10.171-4.89-15.371-2.623c-5.166,2.267-8.525,7.386-8.525,13.012v42.937c-0.333,0.023-0.644-0.115-0.978-0.069    C170.488,78.11,55.633,206.311,55.633,361.399c0,142.018,96.539,260.992,227.443,296.22l-7.006-6.512    C269.19,644.688,265.255,635.61,265.255,626.223z" fill="#444444"/>
	</g>
</g>
<g>
</g>
<g>
</g>
<g>
</g>
<g>
</g>
<g>
</g>
<g>
</g>
<g>
</g>
<g>
</g>
<g>
</g>
<g>
</g>
<g>
</g>
<g>
</g>
<g>
</g>
<g>
</g>
<g>
</g>
</svg>
