<?xml version="1.0" encoding="iso-8859-1"?>
<!-- Generator: Adobe Illustrator 16.0.0, SVG Export Plug-In . SVG Version: 6.00 Build 0)  -->
<!DOCTYPE svg PUBLIC "-//W3C//DTD SVG 1.1//EN" "http://www.w3.org/Graphics/SVG/1.1/DTD/svg11.dtd">
<svg xmlns="http://www.w3.org/2000/svg" xmlns:xlink="http://www.w3.org/1999/xlink" version="1.1" id="Capa_1" x="0px" y="0px" width="512px" height="512px" viewBox="0 0 97.375 97.375" style="enable-background:new 0 0 97.375 97.375;" xml:space="preserve">
<g>
	<path d="M68.509,97.375H28.864c-3.83,0-6.946-3.115-6.946-6.945V6.946c0-3.83,3.116-6.946,6.946-6.946H68.51   c3.831,0,6.947,3.116,6.947,6.946v83.482C75.457,94.258,72.34,97.375,68.509,97.375z M28.864,1c-3.278,0-5.946,2.668-5.946,5.946   v83.482c0,3.278,2.668,5.946,5.946,5.946H68.51c3.279,0,5.947-2.668,5.947-5.946V6.946C74.457,3.668,71.789,1,68.51,1H28.864z    M53.188,94.104h-9c-1.7,0-3.084-1.383-3.084-3.084c0-1.699,1.384-3.082,3.084-3.082h9c1.699,0,3.084,1.383,3.084,3.082   C56.271,92.721,54.887,94.104,53.188,94.104z M44.187,88.938c-1.149,0-2.084,0.935-2.084,2.082c0,1.148,0.935,2.084,2.084,2.084h9   c1.148,0,2.084-0.936,2.084-2.084c0-1.147-0.936-2.082-2.084-2.082H44.187z M72.727,86.898H24.648V10.475h48.079V86.898z    M25.648,85.898h46.079V11.475H25.648V85.898z M55.25,6.479H42.125c-0.448,0-0.813-0.364-0.813-0.813s0.364-0.813,0.813-0.813   H55.25c0.448,0,0.812,0.364,0.812,0.813S55.698,6.479,55.25,6.479z M42.125,5.354c-0.172,0-0.313,0.141-0.313,0.313   s0.141,0.313,0.313,0.313H55.25c0.172,0,0.312-0.141,0.312-0.313s-0.141-0.313-0.312-0.313H42.125z" fill="#FFFFFF"/>
</g>
<g>
</g>
<g>
</g>
<g>
</g>
<g>
</g>
<g>
</g>
<g>
</g>
<g>
</g>
<g>
</g>
<g>
</g>
<g>
</g>
<g>
</g>
<g>
</g>
<g>
</g>
<g>
</g>
<g>
</g>
</svg>
