<?xml version="1.0" encoding="iso-8859-1"?>
<!-- Generator: Adobe Illustrator 19.0.0, SVG Export Plug-In . SVG Version: 6.00 Build 0)  -->
<svg version="1.1" id="Layer_1" xmlns="http://www.w3.org/2000/svg" xmlns:xlink="http://www.w3.org/1999/xlink" x="0px" y="0px"
	 viewBox="0 0 495.414 495.414" style="enable-background:new 0 0 495.414 495.414;" xml:space="preserve">
<g>
	<path style="fill:#FFDA44;" d="M247.707,202.5c-11.046,0-20-8.954-20-20s8.954-20,20-20l0-162.5H0.207v365h70v130.414L200.62,365
		h47.087L247.707,202.5z M167.707,202.5c-11.046,0-20-8.954-20-20s8.954-20,20-20s20,8.954,20,20S178.753,202.5,167.707,202.5z"/>
	<path style="fill:#FFCD00;" d="M247.707,0l0,162.5c11.046,0,20,8.954,20,20s-8.954,20-20,20l0,162.5h247.5V0H247.707z
		 M327.707,202.5c-11.046,0-20-8.954-20-20s8.954-20,20-20s20,8.954,20,20S338.753,202.5,327.707,202.5z"/>
	<circle style="fill:#2488FF;" cx="327.707" cy="182.5" r="20"/>
	<circle style="fill:#2488FF;" cx="167.707" cy="182.5" r="20"/>
	<circle style="fill:#2488FF;" cx="247.707" cy="182.5" r="20"/>
</g>
<g>
</g>
<g>
</g>
<g>
</g>
<g>
</g>
<g>
</g>
<g>
</g>
<g>
</g>
<g>
</g>
<g>
</g>
<g>
</g>
<g>
</g>
<g>
</g>
<g>
</g>
<g>
</g>
<g>
</g>
</svg>
